<svg width="38" height="38" viewBox="0 0 38 38" fill="none" xmlns="http://www.w3.org/2000/svg">
<g opacity="0.8">
<path d="M21.4196 11.19C21.5846 11.19 21.7496 11.19 22.0796 11.19V13.665C21.9146 13.665 21.5846 13.665 21.2546 13.665C20.9246 13.665 20.5946 13.665 20.4296 13.83C20.2646 13.995 20.2646 14.16 20.2646 14.545C20.2646 14.875 20.2646 15.095 20.2646 15.425H22.0796V17.515H20.2646V26.59H17.4596V17.46H15.9746V15.37H17.4596V14.655C17.4596 13.445 17.6246 12.565 17.9546 12.18C18.4496 11.465 19.4396 11.135 20.9246 11.135C21.0896 11.19 21.2546 11.19 21.4196 11.19Z" fill="#F3F3F3"/>
</g>
<rect x="0.5" y="0.5" width="37" height="37" rx="9.5" stroke="#F3F3F3" stroke-opacity="0.2"/>
</svg>
