<svg width="38" height="38" viewBox="0 0 38 38" fill="none" xmlns="http://www.w3.org/2000/svg">
<g opacity="0.8">
<path d="M27.7425 15.3947C27.7318 14.6561 27.595 13.9233 27.333 13.2325C26.8747 12.0528 25.9413 11.1201 24.7597 10.6634C24.0765 10.4068 23.3543 10.2692 22.6232 10.2536C21.683 10.2117 21.3849 10.2 18.9982 10.2C16.6116 10.2 16.3057 10.2 15.3723 10.2536C14.6422 10.2692 13.92 10.4068 13.2368 10.6634C12.0552 11.1201 11.1209 12.0528 10.6635 13.2325C10.4064 13.9145 10.2676 14.6356 10.2539 15.3644C10.2119 16.304 10.1992 16.6016 10.1992 18.9843C10.1992 21.367 10.1992 21.6715 10.2539 22.6043C10.2686 23.3341 10.4064 24.0542 10.6635 24.7381C11.1218 25.9168 12.0552 26.8496 13.2378 27.3062C13.918 27.5716 14.6403 27.7219 15.3733 27.7453C16.3145 27.7873 16.6125 27.7999 18.9992 27.7999C21.3859 27.7999 21.6918 27.7999 22.6252 27.7453C23.3552 27.7307 24.0775 27.5931 24.7616 27.3365C25.9432 26.8789 26.8766 25.9461 27.335 24.7674C27.592 24.0844 27.7298 23.3643 27.7445 22.6335C27.7865 21.6949 27.7992 21.3973 27.7992 19.0136C27.7973 16.6309 27.7973 16.3284 27.7425 15.3947ZM18.9924 23.4902C16.4962 23.4902 14.4741 21.4714 14.4741 18.9795C14.4741 16.4875 16.4962 14.4687 18.9924 14.4687C21.4866 14.4687 23.5106 16.4875 23.5106 18.9795C23.5106 21.4714 21.4866 23.4902 18.9924 23.4902ZM23.6905 15.3537C23.107 15.3537 22.6369 14.8834 22.6369 14.3019C22.6369 13.7203 23.107 13.25 23.6905 13.25C24.272 13.25 24.7431 13.7203 24.7431 14.3019C24.7431 14.8834 24.272 15.3537 23.6905 15.3537Z" fill="#F3F3F3"/>
<path d="M18.9949 21.7335C20.5152 21.7335 21.7477 20.5011 21.7477 18.9808C21.7477 17.4605 20.5152 16.228 18.9949 16.228C17.4746 16.228 16.2422 17.4605 16.2422 18.9808C16.2422 20.5011 17.4746 21.7335 18.9949 21.7335Z" fill="#F3F3F3"/>
</g>
<rect x="0.5" y="0.5" width="37" height="37" rx="9.5" stroke="#F3F3F3" stroke-opacity="0.2"/>
</svg>
